#!OML:ASF E:/inclinewalkrobotboard/Project1/Captureday1/Session1/subject1.ASF
:FULLY-SPECIFIED
:DEGREES
226
root 0 0 0 85.62881831399312 -33.190157511134835 -56.1126200640506
lowerback -11.446633658244396 9.70972385822852 14.187594026011201
upperback -20.787820953492435 12.308659201515864 3.125251739907423
thorax -15.220705833010275 4.232799748069309 -3.784065845481348
lowerneck -8.951053048525694 11.969339852098273 6.243191648732491
upperneck 10.158408514425506 14.264720738065884 9.157734889949904
head 4.527184526156707 7.721183076100013 2.790561644266696
rclavicle 9.378515188358814E-15 7.848840225014606E-15
rhumerus 33.89970002813204 -50.09077342114543 -14.709125458170952
rradius 19.91897407586558
rwrist 40.36178767336366
rhand 0.5720720319780863 2.327752854806664
rfingers 7.125020000000066
rthumb 26.139014207350865 -25.860520979632
lclavicle 8.504138635477671E-16 2.0331847429298826E-15
lhumerus -7.136481339714604 12.9806737994061 -4.23109216401388
lradius 20.910950920803394
lwrist -38.9088316571239
lhand 0.5206421032296766 34.36185809756676
lfingers 7.125020000000039
lthumb 26.059339116840246 62.489344290053985
rfemur 206.39869433633208 -182.7207181409393 -174.3094452592924
rtibia 56.756796943084034
rfoot 58.3490750266685 -31.014569917606096
rtoes 15.765841690052932
lfemur -54.30890615207862 25.554215334735424 21.300297318075863
ltibia 22.987059229976218
lfoot -66.11021079630854 8.911402113460108
ltoes 60.368097343062495
227
root 0 0 0 85.6249390596128 -33.18793723377226 -56.109647899794744
lowerback -11.445059798681047 9.709985477217865 14.190864502547125
upperback -20.7901820735529 12.309013341771283 3.12659112005763
thorax -15.224195551626767 4.23249207492097 -3.7837667103020483
lowerneck -8.948215037219356 11.97051661706981 6.242552709587148
upperneck 10.157277438672583 14.266514472741143 9.160793011306776
head 4.526054455447498 7.722072894419684 2.7915494699640675
rclavicle 9.406158416392555E-15 7.86340570467311E-15
rhumerus 33.85187710437355 -50.103554439104514 -14.64557657568551
rradius 19.91012668432608
rwrist 40.37090290088665
rhand 0.5708766671412331 2.325271126185105
rfingers 7.125020000000066
rthumb 26.137855148346073 -25.86369871251604
lclavicle 8.61201470141322E-16 2.04904597588872E-15
lhumerus -7.170946476312604 12.985183948812038 -4.220355070264262
lradius 20.905767147834972
lwrist -38.92228352466495
lhand 0.5149715426034505 34.355737158669
lfingers 7.125020000000039
lthumb 26.05400608489461 62.4844302570341
rfemur 206.3888348125651 -182.71117312504873 -174.30239982107102
rtibia 56.74958978848545
rfoot 58.33923771896619 -31.024271846607515
rtoes 15.771430720966897
lfemur -54.30816764472299 25.557784727509578 21.300992974313544
ltibia 22.990411618846466
lfoot -66.10747815177383 8.913537890864987
ltoes 60.37052868012093
228
root 0 0 0 85.62117876268752 -33.186241830991705 -56.106868756438004
lowerback -11.443458068786484 9.710220861890434 14.19407448705705
upperback -20.79229172240069 12.309340081198474 3.1278565324351084
thorax -15.227405999847377 4.2321943937881965 -3.7835570522748245
lowerneck -8.945568010139892 11.971484945806651 6.241856759536944
upperneck 10.156637120226751 14.268003194482644 9.163637546600686
head 4.525153361948492 7.722809870186499 2.792473781304775
rclavicle 9.418145554726776E-15 7.876785729930978E-15
rhumerus 33.811291848793836 -50.11094587202555 -14.59239610944769
rradius 19.908550991601814
rwrist 40.37765220814764
rhand 0.5695584873878063 2.3244866521359766
rfingers 7.125020000000066
rthumb 26.13661834625061 -25.865121389935503
lclavicle 8.659041015016293E-16 2.0648029394954392E-15
lhumerus -7.205120244139918 12.987917205432701 -4.205354617161241
lradius 20.903975726131822
lwrist -38.93158010913887
lhand 0.5091744551362651 34.351618581879535
lfingers 7.125020000000039
lthumb 26.048526996523474 62.48143821916202
rfemur 206.3814071557819 -182.70562281485553 -174.2982175928324
rtibia 56.744546514443876
rfoot 58.328507317699604 -31.03056782757698
rtoes 15.773873844460143
lfemur -54.30825551899027 25.56016902939676 21.3014691394837
ltibia 22.99239233927086
lfoot -66.10352782759519 8.913193732662961
ltoes 60.37179102931467
229
root 0 0 0 85.63612086897784 -33.19714158944838 -56.11968018929596
lowerback -11.450055663128095 9.709164618698956 14.179886361143804
upperback -20.78133555669794 12.30807088086383 3.122217924697069
thorax -15.211695425517318 4.233740188351283 -3.7846456865069893
lowerneck -8.95836884524126 11.966184896555477 6.244771582238393
upperneck 10.163720383687373 14.259825621665403 9.150114904041416
head 4.531099688046376 7.718782570541944 2.7880488965155648
rclavicle 9.404602763800465E-15 7.846210052875485E-15
rhumerus 34.0159229547383 -50.06300406096619 -14.823469532985072
rradius 19.944335761272313
rwrist 40.36523047295172
rhand 0.5773143640818637 2.331289230385706
rfingers 7.125020000000066
rthumb 26.14440862817553 -25.855046408994482
lclavicle 8.987626015190654E-16 2.021130114744341E-15
lhumerus -7.121258673589276 12.972731741393254 -4.237057070365516
lradius 20.926669134650226
lwrist -38.8717845290847
lhand 0.5276358008636997 34.373883913305036
lfingers 7.125020000000039
lthumb 26.0657384429177 62.49968699522053
rfemur 206.41751875799307 -182.73641680899232 -174.32725528680066
rtibia 56.77128321703914
rfoot 58.365091961712324 -30.994757458362784
rtoes 15.756301240274496
lfemur -54.29956717313872 25.547649490383044 21.29605945984993
ltibia 22.976459636470715
lfoot -66.11936039728211 8.902148749151756
ltoes 60.36445344920577
230
root 0 0 0 85.6293950480268 -33.1906853268247 -56.11317232039621
lowerback -11.446917062041972 9.709699678982705 14.18708020999259
upperback -20.787390402896072 12.308635141793216 3.12505309711524
thorax -15.220074708292842 4.232871503422792 -3.784102648025054
lowerneck -8.951562230835401 11.96912129699163 6.243297482397638
upperneck 10.158700292016864 14.264382607988153 9.157236691320014
head 4.527424327094713 7.721018552780049 2.790395278951933
rclavicle 9.375024850585451E-15 7.844762410161513E-15
rhumerus 33.90088421460698 -50.09114129948756 -14.709063029817337
rradius 19.918595626883338
rwrist 40.362450634345024
rhand 0.5721397935770747 2.3276166371348497
rfingers 7.125020000000066
rthumb 26.13907649878812 -25.860650872156473
lclavicle 8.481429163947378E-16 2.0295264246789237E-15
lhumerus -7.134505979108576 12.98013302587351 -4.234461695145882
lradius 20.910738722447753
lwrist -38.90855473032998
lhand 0.5215166610051323 34.362069093144264
lfingers 7.125020000000039
lthumb 26.060171320262175 62.48937816743533
rfemur 206.39753648419952 -182.7198140079057 -174.3083548907793
rtibia 56.75626843228159
rfoot 58.34959431118783 -31.01605403009326
rtoes 15.766427912077134
lfemur -54.308899288215564 25.554007791369003 21.29999204539788
ltibia 22.987140956429712
lfoot -66.11084142832686 8.911928859042686
ltoes 60.36779419681808
231
root 0 0 0 85.6251919249031 -33.18814668666251 -56.10988958025308
lowerback -11.445184806857515 9.709976000279166 14.190636948239984
upperback -20.789998639485194 12.30900419500293 3.126504035549028
thorax -15.223925145708776 4.232524216258204 -3.7837812209501376
lowerneck -8.948435023509674 11.970424809892648 6.242601046591051
upperneck 10.15739389034955 14.266372364475936 9.16057573683564
head 4.52615470062385 7.722003730197805 2.7914767007380474
rclavicle 9.404487394311803E-15 7.861463139533683E-15
rhumerus 33.852811167631664 -50.10378635497964 -14.645461123333355
rradius 19.90987499845764
rwrist 40.371346008463895
rhand 0.5709502719511326 2.3251266232434444
rfingers 7.125020000000066
rthumb 26.13792471685019 -25.863835307068413
lclavicle 8.600701605400092E-16 2.0472911221186816E-15
lhumerus -7.169404713002847 12.984917773795253 -4.2222978685234125
lradius 20.905652778597005
lwrist -38.92211947186863
lhand 0.5154914308250598 34.355886562502214
lfingers 7.125020000000039
lthumb 26.05450102120715 62.484479459187206
rfemur 206.38833467164255 -182.71074837631537 -174.30188063614438
rtibia 56.74932750764154
rfoot 58.33951905826609 -31.024939580440083
rtoes 15.77178283059064
lfemur -54.30817974602827 25.557689857083197 21.3008677792648
ltibia 22.99045112597757
lfoot -66.1077703734518 8.913770680292663
ltoes 60.37037500626995
232
root 0 0 0 85.621276632136 -33.18630448691847 -56.10696069038238
lowerback -11.44350680547564 9.710217827893223 14.1939846499544
upperback -20.79222563909832 12.309337237656532 3.127822901798002
thorax -15.227307213281719 4.2322070671056435 -3.78356127931868
lowerneck -8.945649923396884 11.97145308947038 6.241876905162074
upperneck 10.15667157169522 14.267953868200562 9.163554715326004
head 4.52518747794657 7.722785815448755 2.7924459585936487
rclavicle 9.417375615797937E-15 7.875934196327446E-15
rhumerus 33.811975693875446 -50.11106712020111 -14.592364632437516
rradius 19.90840225102062
rwrist 40.37791261544453
rhand 0.5696152562894916 2.324377562976774
rfingers 7.125020000000066
rthumb 26.136672466572588 -25.865223606872828
lclavicle 8.653628764787154E-16 2.0640207401690306E-15
lhumerus -7.203989469260154 12.987790339456478 -4.206447033531163
lradius 20.903921865478047
lwrist -38.93146919183111
lhand 0.5094786416886838 34.35172399453771
lfingers 7.125020000000039
lthumb 26.048816635229045 62.48148766910239
rfemur 206.38124107853275 -182.70545511452656 -174.29800342678595
rtibia 56.744435323384565
rfoot 58.32866637256441 -31.030817067914164
rtoes 15.77406844787814
lfemur -54.308272797377406 25.56012613120506 21.30142902486633
ltibia 22.99240494884247
lfoot -66.10365107975417 8.913280582926706
ltoes 60.37171430677479
233
root 0 0 0 85.6194758292441 -33.18566481611282 -56.10561506391693
lowerback -11.442726644725727 9.71031331449398 14.195555432243385
upperback -20.79321986174087 12.309468908053127 3.128438388574505
thorax -15.228827399752387 4.232048313827475 -3.783469913861639
lowerneck -8.944377948879556 11.971904825717074 6.241528865296538
upperneck 10.156406753484813 14.268647625232658 9.164925570900662
head 4.524767926290725 7.723129158983665 2.7928950713798795
rclavicle 9.428990827586967E-15 7.881060426296317E-15
rhumerus 33.78306544412584 -50.113957315853504 -14.561202287538826
rradius 19.909066871716732
rwrist 40.380419891853435
rhand 0.5678589600361907 2.3251122306869956
rfingers 7.125020000000066
rthumb 26.13500898167866 -25.865023220012432
lclavicle 8.719440725294488E-16 2.0712552931391668E-15
lhumerus -7.227371758221904 12.988649961936119 -4.196858587886588
lradius 20.9033232008293
lwrist -38.93593236687303
lhand 0.5056857922845619 34.34929799677446
lfingers 7.125020000000039
lthumb 26.045215052292093 62.47972348445221
rfemur 206.3760521527825 -182.70178491534392 -174.29545728247203
rtibia 56.74173362148201
rfoot 58.32240260682059 -31.035339571934934
rtoes 15.774108370650513
lfemur -54.307525955961204 25.561317161951273 21.301881991874296
ltibia 22.992885082516125
lfoot -66.10102334306278 8.912428108910811
ltoes 60.37250419199016
